<?xml version="1.0" standalone="no"?>
<!DOCTYPE svg PUBLIC "-//W3C//DTD SVG 20010904//EN"
 "http://www.w3.org/TR/2001/REC-SVG-20010904/DTD/svg10.dtd">
<svg version="1.0" xmlns="http://www.w3.org/2000/svg"
 width="700.000000pt" height="700.000000pt" viewBox="0 0 700.000000 700.000000"
 preserveAspectRatio="xMidYMid meet">
<metadata>
Created by potrace 1.11, written by Peter Selinger 2001-2013
</metadata>
<g transform="translate(0.000000,700.000000) scale(0.100000,-0.100000)"
fill="#000000" stroke="none">
<path d="M3500 5482 c0 -1511 0 -1518 -20 -1518 -11 0 -20 1 -20 2 0 1 -52
296 -115 656 -64 359 -127 718 -141 798 -14 80 -75 424 -135 765 -60 341 -112
636 -115 655 -19 114 -19 115 -39 115 -27 0 -30 19 60 -485 90 -511 154 -870
171 -970 8 -47 72 -411 143 -810 107 -608 126 -726 114 -733 -8 -5 -17 -7 -19
-4 -3 2 -236 641 -519 1418 -283 778 -517 1419 -519 1426 -3 6 -14 9 -24 6
-17 -4 -19 -10 -12 -31 4 -15 236 -652 514 -1417 278 -764 507 -1397 509
-1405 1 -8 -5 -16 -14 -18 -12 -2 -68 86 -214 340 -109 189 -296 512 -415 718
-119 206 -369 640 -556 963 -186 324 -345 591 -352 594 -47 19 -15 -44 279
-553 171 -296 399 -692 507 -879 108 -187 310 -536 448 -775 233 -404 255
-449 222 -450 -4 0 -40 39 -80 87 -40 48 -83 99 -95 113 -24 29 -344 410 -407
485 -22 27 -66 79 -96 115 -31 36 -127 151 -215 255 -165 197 -347 414 -520
620 -55 66 -184 219 -285 340 -102 121 -195 232 -207 246 -13 14 -30 34 -38
45 -13 18 -15 18 -31 2 -14 -14 -15 -19 -3 -31 8 -7 33 -36 55 -63 84 -99 794
-946 964 -1148 96 -115 287 -342 424 -505 136 -163 265 -316 286 -341 198
-236 210 -252 199 -267 -10 -12 -15 -11 -33 5 -12 10 -133 113 -271 227 -137
115 -279 234 -315 264 -36 31 -88 75 -115 97 -93 77 -1260 1056 -1310 1099
-296 250 -304 256 -314 236 -10 -17 17 -42 226 -218 129 -109 241 -203 247
-208 6 -6 49 -42 96 -80 47 -38 87 -72 90 -75 3 -4 159 -135 348 -293 189
-158 384 -322 435 -365 51 -42 94 -79 97 -82 3 -3 86 -73 185 -155 99 -82 191
-160 205 -172 14 -12 104 -87 200 -168 96 -80 176 -149 177 -153 2 -4 -1 -13
-6 -21 -7 -11 -13 -12 -23 -4 -7 6 -31 21 -52 33 -22 12 -215 123 -430 247
-941 543 -1118 645 -1581 913 -269 155 -505 291 -524 302 -27 15 -36 17 -42 6
-14 -21 -11 -25 34 -50 43 -25 202 -117 1407 -813 388 -224 811 -468 942 -543
202 -117 235 -139 227 -154 -8 -14 -14 -16 -37 -7 -15 6 -657 240 -1426 520
-1057 385 -1401 506 -1408 497 -12 -19 -10 -25 10 -33 22 -9 2306 -841 2600
-947 123 -45 226 -87 229 -95 12 -32 26 -33 -427 48 -118 21 -228 41 -245 44
-16 3 -95 16 -175 30 -80 14 -194 34 -255 44 -60 11 -456 81 -880 155 -424 75
-821 145 -883 157 -62 11 -120 18 -128 15 -13 -5 -20 -36 -8 -36 3 0 67 -11
143 -25 75 -13 213 -38 306 -54 285 -50 409 -72 435 -76 37 -7 640 -113 675
-119 17 -3 208 -37 425 -75 217 -39 411 -73 430 -76 33 -6 345 -61 400 -71 14
-2 58 -10 98 -16 l72 -12 0 -38 0 -38 -1520 0 c-1513 0 -1520 0 -1520 -20 0
-20 7 -20 1521 -20 l1520 0 -3 -22 c-4 -25 38 -16 -598 -128 -124 -21 -263
-46 -310 -54 -47 -8 -305 -54 -575 -101 -269 -48 -717 -127 -994 -176 -277
-49 -506 -91 -509 -93 -2 -3 -2 -13 2 -22 5 -12 14 -15 39 -11 45 8 546 96
912 161 171 30 326 58 345 61 19 3 175 31 345 61 171 30 324 57 340 60 66 11
436 77 701 124 155 27 291 50 303 50 12 0 21 -6 21 -15 0 -16 -10 -21 -120
-61 -953 -344 -2725 -994 -2727 -1000 -1 -5 1 -15 5 -22 6 -9 83 15 313 99
167 61 327 119 354 128 101 37 2033 740 2112 770 76 28 83 29 92 13 7 -15 -90
-74 -698 -424 -1678 -969 -1915 -1106 -1918 -1114 -1 -5 1 -15 6 -22 6 -10 63
18 237 119 250 144 1153 665 1464 844 107 62 362 209 565 327 315 183 372 213
385 202 9 -9 11 -17 5 -23 -6 -4 -68 -57 -140 -117 -71 -60 -141 -118 -155
-130 -14 -12 -169 -142 -345 -290 -337 -281 -629 -527 -780 -654 -49 -42 -160
-134 -245 -206 -85 -71 -166 -139 -180 -150 -14 -12 -125 -106 -248 -208 -122
-103 -222 -191 -222 -197 0 -31 37 -15 112 47 46 38 85 71 88 74 3 3 30 26 60
51 30 25 172 145 316 265 143 120 352 296 465 391 112 94 214 179 226 190 12
10 95 80 185 155 89 75 329 276 533 447 279 234 372 307 382 299 17 -14 16
-14 -119 -175 -64 -76 -216 -257 -338 -403 -122 -146 -241 -287 -265 -315 -23
-27 -140 -167 -260 -310 -119 -143 -227 -271 -239 -285 -21 -25 -302 -359
-574 -684 -111 -132 -139 -172 -131 -183 6 -7 14 -13 18 -13 4 0 32 30 62 68
68 82 265 317 329 392 26 30 129 154 230 275 101 121 186 222 189 225 4 3 121
142 261 310 139 168 257 307 260 310 3 3 84 100 180 215 96 116 177 212 180
215 3 3 39 45 80 95 182 218 184 220 202 209 12 -7 -53 -127 -369 -674 -211
-366 -488 -845 -615 -1065 -127 -220 -296 -512 -376 -649 -133 -230 -143 -251
-126 -263 10 -7 18 -12 19 -10 2 2 733 1268 1000 1732 476 827 518 896 534
893 9 -2 15 -10 14 -18 -2 -9 -192 -535 -424 -1170 -231 -635 -424 -1166 -429
-1180 -4 -14 -47 -130 -94 -259 -47 -129 -85 -236 -83 -237 1 -1 10 -4 21 -6
16 -3 85 179 536 1420 285 783 520 1426 523 1428 10 11 37 -10 33 -25 -4 -13
-72 -393 -101 -561 -3 -19 -46 -264 -96 -545 -50 -280 -97 -548 -105 -595 -21
-121 -136 -774 -183 -1040 -22 -123 -37 -228 -35 -232 10 -16 34 -7 39 15 3
12 19 99 35 192 16 94 34 195 40 225 6 30 28 156 50 280 21 124 49 279 60 345
12 66 93 526 181 1023 87 496 159 904 159 906 0 2 9 2 20 -1 20 -5 20 -14 20
-1524 0 -1512 0 -1519 20 -1519 20 0 20 7 20 1520 0 1361 2 1521 15 1527 9 3
18 4 20 2 3 -3 37 -192 169 -944 3 -16 44 -248 91 -515 48 -267 96 -543 109
-615 154 -885 160 -915 185 -915 19 0 22 4 18 23 -3 12 -31 164 -61 337 -31
173 -67 378 -81 455 -13 77 -52 295 -85 485 -33 190 -67 381 -75 425 -8 44
-47 262 -86 485 -39 223 -86 490 -105 594 -33 185 -34 205 -4 206 3 0 41 -96
83 -212 43 -117 276 -759 519 -1425 369 -1014 444 -1213 460 -1213 10 0 18 6
18 13 0 7 -101 289 -224 627 -123 338 -355 976 -516 1418 -216 595 -289 807
-281 815 8 8 15 7 25 -3 7 -8 143 -240 301 -515 159 -275 313 -543 343 -595
30 -52 215 -372 410 -710 509 -882 462 -805 480 -787 13 14 -23 81 -353 654
-1198 2074 -1147 1985 -1133 1999 14 14 9 20 516 -586 90 -107 173 -206 185
-220 12 -14 92 -108 177 -210 205 -245 736 -878 764 -910 11 -14 88 -105 170
-203 97 -116 154 -177 165 -175 25 5 20 20 -24 73 -41 49 -346 413 -416 495
-21 25 -115 137 -209 250 -95 113 -189 225 -210 250 -21 25 -114 135 -207 246
-177 212 -547 653 -745 889 -65 77 -118 144 -118 148 0 4 7 10 14 13 9 4 73
-43 168 -123 84 -71 212 -178 283 -237 72 -60 141 -118 155 -130 14 -12 126
-106 250 -210 124 -103 236 -198 250 -210 14 -12 207 -174 430 -361 223 -186
446 -373 495 -415 258 -218 297 -250 305 -250 4 0 13 6 19 13 8 11 -24 43
-152 149 -262 219 -687 576 -1172 983 -170 143 -409 344 -530 445 -398 333
-455 382 -459 389 -3 4 -1 13 4 21 6 10 31 0 115 -49 58 -34 122 -71 142 -82
20 -12 140 -81 267 -154 127 -73 463 -267 746 -430 283 -164 705 -408 938
-542 392 -227 463 -262 450 -221 -3 7 -272 167 -599 356 -733 424 -1357 785
-1384 800 -11 7 -159 93 -329 191 -171 98 -312 183 -314 189 -2 7 3 14 10 17
8 3 652 -226 1431 -510 780 -284 1422 -513 1427 -510 27 17 2 36 -97 72 -60
22 -701 255 -1425 519 -1065 387 -1318 482 -1318 497 0 22 -5 22 164 -8 238
-42 420 -74 451 -79 40 -7 1217 -215 1505 -266 124 -22 239 -42 255 -45 17 -3
41 -7 55 -10 165 -30 541 -95 554 -95 9 0 16 8 16 20 0 11 -2 20 -5 20 -2 0
-219 38 -482 85 -263 46 -543 95 -623 109 -152 27 -417 73 -460 81 -14 3 -295
52 -625 110 -330 58 -643 114 -695 124 -94 18 -82 19 1423 20 1510 1 1517 1
1517 21 0 20 -7 20 -1520 20 -1483 0 -1520 0 -1520 19 0 15 10 20 48 26 45 6
372 63 802 140 107 19 389 69 625 110 237 42 529 93 650 115 121 21 236 42
255 45 298 51 607 108 612 113 4 4 3 13 -2 21 -9 15 -14 14 -225 -23 -44 -8
-96 -17 -115 -21 -19 -3 -98 -17 -175 -30 -270 -48 -2400 -423 -2442 -430 -38
-6 -43 -4 -43 12 0 15 167 79 1028 392 1778 647 1822 663 1822 677 0 7 -4 16
-10 19 -5 3 -649 -227 -1431 -511 -1104 -401 -1423 -514 -1429 -503 -12 18 -7
24 53 56 28 16 230 132 447 258 379 219 1055 609 1774 1024 187 108 341 202
344 208 13 42 -54 10 -425 -205 -1308 -755 -2209 -1275 -2219 -1279 -23 -9
-24 29 -2 47 22 17 344 287 398 334 14 11 106 89 205 171 99 83 191 160 205
171 60 51 368 310 510 429 85 71 160 134 166 140 6 5 33 28 59 50 104 86 573
479 624 523 30 26 74 63 97 82 38 30 42 37 29 49 -12 12 -17 12 -32 0 -30 -23
-494 -409 -569 -473 -39 -34 -82 -70 -95 -81 -136 -113 -205 -171 -209 -175
-3 -3 -45 -39 -95 -80 -49 -41 -95 -79 -101 -85 -6 -5 -33 -28 -60 -50 -26
-22 -91 -76 -144 -120 -52 -45 -234 -197 -405 -340 -170 -142 -312 -261 -315
-265 -3 -3 -45 -39 -95 -80 -49 -41 -92 -77 -95 -80 -21 -23 -120 -100 -129
-100 -26 0 -20 25 16 68 105 126 766 915 823 982 36 42 130 155 210 250 144
172 626 747 659 785 194 228 223 269 206 281 -15 11 -35 -10 -173 -174 -86
-103 -213 -254 -282 -337 -69 -82 -269 -321 -445 -530 -175 -209 -339 -404
-364 -434 -38 -44 -292 -348 -645 -768 -51 -62 -63 -71 -74 -59 -12 12 25 82
248 467 1308 2267 1254 2170 1238 2186 -14 13 -21 5 -71 -79 -67 -115 -1308
-2263 -1390 -2408 -71 -124 -82 -139 -98 -123 -8 8 124 382 502 1420 282 774
514 1418 517 1431 3 17 0 22 -15 22 -21 0 -10 29 -876 -2352 -100 -274 -184
-498 -187 -498 -26 1 -29 19 -15 95 8 44 39 222 70 395 30 173 58 329 61 345
9 58 75 431 99 565 21 115 47 262 70 400 4 19 15 82 25 140 10 58 35 197 55
310 19 113 38 216 40 230 8 40 86 483 90 508 3 17 -1 22 -18 22 -22 0 -25 -15
-86 -362 -66 -379 -68 -388 -76 -428 -2 -14 -7 -41 -10 -60 -3 -19 -82 -467
-175 -995 -93 -528 -172 -976 -175 -995 -20 -123 -28 -151 -44 -148 -15 3 -16
135 -19 1521 -2 1509 -2 1517 -22 1517 -20 0 -20 -7 -20 -1518z"/>
</g>
</svg>
