<svg width="233" height="232" viewBox="0 0 233 232" fill="none" xmlns="http://www.w3.org/2000/svg">
<path d="M54.6215 166.19L53.1887 164.502L60.0317 158.696C60.9655 157.904 61.9555 157.568 63.0016 157.687C64.044 157.801 64.9707 158.337 65.7819 159.293C66.6461 160.312 67.0563 161.316 67.0125 162.306C66.9687 163.296 66.4888 164.179 65.5728 164.957L64.14 163.268C64.6583 162.828 64.9413 162.369 64.9888 161.891C65.0281 161.412 64.8412 160.928 64.428 160.441C64.0414 159.986 63.5847 159.751 63.0579 159.737C62.5229 159.722 61.9895 159.94 61.4578 160.391L54.6215 166.19Z" fill="#AD8E55"/>
<path d="M55.7591 146.178C56.7054 146.385 57.4497 146.998 57.992 148.017C58.4764 148.927 58.5775 149.759 58.2952 150.514C58.0102 151.263 57.3634 151.906 56.3547 152.442L50.9158 155.337L49.9125 153.451L55.3281 150.569C56.3937 150.002 56.6911 149.276 56.2204 148.392C55.7331 147.476 55.0757 147.033 54.2482 147.062L48.2196 150.27L47.2162 148.385L55.6113 143.917L56.5568 145.694L55.7591 146.178Z" fill="#AD8E55"/>
<path d="M49.3332 133.581C48.9666 133.684 48.7304 133.915 48.6244 134.274C48.5168 134.627 48.4882 135.173 48.5386 135.914C48.589 136.655 48.5673 137.291 48.4735 137.823C48.2664 138.989 47.6918 139.705 46.75 139.97C45.9604 140.192 45.2068 140.045 44.4892 139.529C43.7716 139.013 43.2682 138.242 42.9791 137.215C42.6708 136.121 42.6929 135.162 43.0453 134.339C43.3961 133.509 44.0029 132.973 44.8658 132.73L45.4449 134.786C45.0501 134.897 44.7643 135.136 44.5875 135.502C44.405 135.87 44.3821 136.297 44.5187 136.782C44.6458 137.233 44.8542 137.573 45.1439 137.802C45.432 138.025 45.7509 138.087 46.1006 137.989C46.4164 137.9 46.6244 137.698 46.7246 137.384C46.8248 137.07 46.8515 136.484 46.8048 135.626C46.7525 134.771 46.786 134.079 46.9055 133.553C47.0177 133.022 47.2149 132.598 47.497 132.281C47.7775 131.959 48.163 131.728 48.6537 131.59C49.4771 131.358 50.2416 131.511 50.947 132.049C51.6468 132.588 52.1525 133.411 52.4638 134.516C52.6751 135.266 52.728 135.973 52.6225 136.636C52.5171 137.298 52.2735 137.86 51.8919 138.321C51.5103 138.781 51.046 139.089 50.4989 139.243L49.9365 137.246C50.4136 137.081 50.737 136.792 50.9067 136.379C51.0709 135.968 51.0743 135.483 50.917 134.925C50.7645 134.383 50.547 134 50.2645 133.775C49.9764 133.552 49.666 133.487 49.3332 133.581Z" fill="#AD8E55"/>
<path d="M38.1681 122.51L40.4706 122.305L40.3219 120.633L41.8977 120.493L42.0464 122.165L47.3341 121.695C47.6959 121.663 47.9524 121.57 48.1033 121.415C48.2479 121.255 48.3039 120.991 48.2712 120.623C48.2494 120.378 48.1981 120.133 48.1175 119.887L49.7633 119.741C49.9406 120.213 50.0493 120.674 50.0892 121.124C50.2345 122.758 49.4055 123.655 47.6021 123.815L42.2355 124.293L42.3741 125.851L40.7983 125.991L40.6597 124.433L38.3573 124.638L38.1681 122.51Z" fill="#AD8E55"/>
<path d="M47.5207 100.461L48.2425 101.615L51.256 102.353L50.748 104.428L37.6355 101.217L38.1435 99.1422L45.7071 100.994L45.055 100.147L42.8032 96.89L43.4136 94.3972L46.4233 98.7719L52.7404 96.2922L52.1529 98.691L47.5207 100.461Z" fill="#AD8E55"/>
<path d="M56.7878 87.1763C56.1934 88.3924 55.3293 89.1928 54.1955 89.5778C53.0589 89.9549 51.8537 89.8321 50.5798 89.2094L50.3429 89.0936C49.4901 88.6768 48.8092 88.1418 48.3002 87.4886C47.7885 86.8276 47.4911 86.1084 47.4081 85.3308C47.3251 84.5533 47.4625 83.7986 47.8201 83.0669C48.3888 81.9035 49.1986 81.1874 50.2496 80.9185C51.3032 80.6444 52.5091 80.8392 53.8673 81.5031L54.6411 81.8813L51.9123 87.464C52.646 87.7508 53.3185 87.7893 53.9298 87.5794C54.5437 87.3643 55.0037 86.9435 55.3099 86.317C55.7397 85.4379 55.7343 84.5483 55.2938 83.6482L56.7864 83.0962C57.1298 83.688 57.3034 84.3403 57.3072 85.053C57.3083 85.7579 57.1352 86.4657 56.7878 87.1763ZM49.356 83.8274C49.0987 84.3539 49.0745 84.8703 49.2835 85.3768C49.495 85.878 49.9079 86.3342 50.5222 86.7454L52.3092 83.0894L52.1671 83.0199C51.5043 82.7481 50.9364 82.6825 50.4633 82.823C49.985 82.9609 49.6159 83.2958 49.356 83.8274Z" fill="#AD8E55"/>
<path d="M64.3678 75.2891C63.5282 76.3508 62.5136 76.949 61.3238 77.0838C60.133 77.2104 58.9816 76.8339 57.8694 75.9544L57.6625 75.7908C56.918 75.202 56.3666 74.5343 56.0082 73.7878C55.6489 73.033 55.5115 72.267 55.5959 71.4896C55.6803 70.7122 55.9751 70.0041 56.4803 69.3652C57.2835 68.3496 58.2272 67.8222 59.3114 67.7831C60.3992 67.7395 61.5359 68.1865 62.7217 69.1243L63.3973 69.6585L59.5429 74.5325C60.1987 74.969 60.8476 75.1497 61.4896 75.0747C62.1352 74.9951 62.6742 74.6819 63.1067 74.135C63.7137 73.3675 63.8978 72.4971 63.659 71.5239L65.2349 71.3022C65.4444 71.9535 65.4752 72.6278 65.3272 73.325C65.1783 74.014 64.8585 74.6687 64.3678 75.2891ZM57.8191 70.4352C57.4557 70.8948 57.3221 71.3943 57.4185 71.9337C57.5185 72.4684 57.8248 73.0021 58.3376 73.5345L60.8617 70.3426L60.7376 70.2445C60.1479 69.8379 59.6069 69.6529 59.1148 69.6895C58.6181 69.7225 58.1862 69.9711 57.8191 70.4352Z" fill="#AD8E55"/>
<path d="M74.4677 58.938C75.3925 60.0816 75.8716 61.205 75.9049 62.3085C75.9345 63.4073 75.512 64.3105 74.6372 65.0179C73.8263 65.6738 72.9615 65.9323 72.043 65.7935L74.8782 69.2993L73.2176 70.6423L64.9384 60.4052L66.4692 59.1672L67.1454 59.8637C67.1539 58.8771 67.5773 58.0449 68.4156 57.3669C69.3177 56.6374 70.2965 56.4034 71.3521 56.665C72.4085 56.9184 73.4194 57.6419 74.3848 58.8355L74.4677 58.938ZM72.6978 60.132C72.1009 59.394 71.4794 58.9283 70.8332 58.735C70.1916 58.538 69.5975 58.6605 69.0507 59.1027C68.3719 59.6517 68.111 60.3261 68.2681 61.126L70.921 64.4063C71.686 64.7371 72.4101 64.6262 73.0935 64.0735C73.622 63.6461 73.863 63.1008 73.8164 62.4376C73.7708 61.7662 73.3979 60.9976 72.6978 60.132Z" fill="#AD8E55"/>
<path d="M95.9494 50.731C95.8312 50.3689 95.5908 50.1423 95.2282 50.0511C94.8712 49.958 94.3237 49.9518 93.5857 50.0324C92.8477 50.113 92.2112 50.1173 91.6762 50.0453C90.5024 49.886 89.7638 49.3412 89.4602 48.411C89.2057 47.6311 89.3217 46.8722 89.8081 46.1341C90.2945 45.396 91.0446 44.8615 92.0584 44.5306C93.139 44.178 94.098 44.1609 94.9354 44.4793C95.7783 44.7959 96.3389 45.3803 96.617 46.2326L94.5866 46.8952C94.4594 46.5053 94.2091 46.2294 93.8358 46.0677C93.4608 45.9005 93.0337 45.895 92.5546 46.0513C92.109 46.1968 91.7778 46.4189 91.561 46.7177C91.3497 47.0147 91.3004 47.3358 91.4131 47.6812C91.5149 47.9931 91.7249 48.1927 92.0431 48.28C92.3612 48.3672 92.9477 48.37 93.8024 48.2883C94.6553 48.201 95.3473 48.2063 95.8785 48.3041C96.4134 48.3946 96.845 48.5743 97.1731 48.8432C97.5068 49.1102 97.7527 49.4861 97.9109 49.9707C98.1763 50.784 98.0547 51.554 97.5461 52.2809C97.0357 53.0021 96.2346 53.5409 95.1428 53.8972C94.402 54.139 93.6983 54.2207 93.0317 54.1424C92.3652 54.0641 91.794 53.8437 91.3182 53.4812C90.8424 53.1187 90.5164 52.6673 90.3401 52.127L92.3119 51.4835C92.4961 51.9535 92.798 52.2648 93.2177 52.4176C93.6355 52.5647 94.1202 52.5483 94.6716 52.3684C95.2064 52.1938 95.5803 51.9609 95.7934 51.6695C96.0046 51.3725 96.0566 51.0597 95.9494 50.731Z" fill="#AD8E55"/>
<path d="M109.08 49.2067C109.61 49.1529 110.035 48.9538 110.353 48.6094C110.672 48.265 110.82 47.8643 110.797 47.4072L112.799 47.2044C112.836 47.7955 112.708 48.365 112.416 48.9129C112.123 49.4549 111.698 49.9044 111.139 50.2613C110.58 50.6183 109.96 50.8313 109.278 50.9004C107.955 51.0345 106.862 50.7123 106 49.9339C105.138 49.1555 104.63 48.0114 104.477 46.5016L104.455 46.283C104.309 44.8431 104.577 43.6528 105.259 42.712C105.941 41.7655 106.946 41.2248 108.275 41.0902C109.4 40.9762 110.349 41.2128 111.121 41.8001C111.898 42.381 112.359 43.203 112.502 44.2663L110.499 44.4692C110.421 43.9294 110.189 43.5023 109.804 43.188C109.425 42.8731 108.967 42.7428 108.43 42.7971C107.743 42.8668 107.237 43.1712 106.915 43.7103C106.592 44.2437 106.479 45.0178 106.576 46.0327L106.611 46.3737C106.715 47.3997 106.976 48.1477 107.395 48.6177C107.819 49.0812 108.38 49.2775 109.08 49.2067Z" fill="#AD8E55"/>
<path d="M125.189 43.3963C124.914 43.3237 124.627 43.2737 124.329 43.2462C123.355 43.1563 122.664 43.4691 122.257 44.1847L121.659 50.6611L119.532 50.4647L120.406 40.9952L122.437 41.1827L122.392 42.2465C122.981 41.4712 123.731 41.1256 124.641 41.2096C124.944 41.2376 125.191 41.3016 125.382 41.4016L125.189 43.3963Z" fill="#AD8E55"/>
<path d="M131.713 47.209C131.982 46.3169 132.4 45.5677 132.968 44.9614C133.537 44.3496 134.199 43.9491 134.954 43.76C135.71 43.5653 136.503 43.5928 137.333 43.8427C138.562 44.2123 139.439 44.9075 139.964 45.9283C140.495 46.9507 140.595 48.1248 140.263 49.4507L140.127 49.933C139.857 50.8308 139.442 51.5808 138.881 52.1831C138.326 52.7871 137.668 53.1857 136.906 53.3787C136.15 53.5734 135.351 53.5442 134.509 53.291C133.224 52.9044 132.323 52.1682 131.805 51.0824C131.295 49.9926 131.254 48.7352 131.683 47.31L131.713 47.209ZM133.705 48.001C133.423 48.9381 133.396 49.7313 133.623 50.3809C133.851 51.0248 134.31 51.4505 135.001 51.6582C135.691 51.8658 136.308 51.7577 136.851 51.3338C137.4 50.9116 137.831 50.1815 138.143 49.1435C138.42 48.2233 138.441 47.434 138.204 46.7755C137.973 46.1186 137.519 45.6881 136.84 45.4839C136.172 45.283 135.562 45.39 135.008 45.8049C134.457 46.2141 134.023 46.9462 133.705 48.001Z" fill="#AD8E55"/>
<path d="M146.987 58.2265L145.091 57.2438L151.302 45.2577L153.199 46.2403L146.987 58.2265Z" fill="#AD8E55"/>
<path d="M154.968 63.2659L153.231 62.0231L161.087 51.0443L162.824 52.2872L154.968 63.2659Z" fill="#AD8E55"/>
<path d="M162.143 69.3899L160.601 67.9123L167.181 61.046L168.723 62.5237L162.143 69.3899ZM168.794 59.1716C169.021 58.9347 169.284 58.8089 169.582 58.7943C169.884 58.7837 170.175 58.9122 170.454 59.1798C170.733 59.4473 170.874 59.7323 170.876 60.0348C170.879 60.3373 170.766 60.607 170.539 60.8439C170.316 61.0766 170.054 61.1982 169.752 61.2088C169.453 61.2152 169.165 61.0846 168.885 60.817C168.606 60.5494 168.463 60.2665 168.457 59.9683C168.459 59.6699 168.571 59.4043 168.794 59.1716Z" fill="#AD8E55"/>
<path d="M175.852 70.5725L174.999 71.2678C176.099 71.3376 176.985 71.8348 177.657 72.7594C178.82 74.362 178.495 75.8437 176.68 77.2043L171.595 80.8964L170.34 79.1681L175.326 75.5484C175.814 75.1938 176.097 74.8255 176.175 74.4434C176.26 74.0627 176.129 73.6329 175.782 73.154C175.276 72.457 174.583 72.1667 173.705 72.2832L168.228 76.2592L166.974 74.531L174.669 68.9438L175.852 70.5725Z" fill="#AD8E55"/>
<path d="M179.037 84.1335C180.393 83.5499 181.612 83.4019 182.692 83.6896C183.781 83.9804 184.552 84.6532 185.006 85.7081C185.434 86.7038 185.424 87.6363 184.975 88.5056L185.894 88.2157L186.654 89.9838L178.185 93.6281C177.039 94.1214 175.981 94.1526 175.011 93.7216C174.043 93.296 173.299 92.4777 172.778 91.2667C172.502 90.6263 172.367 89.9413 172.372 89.212C172.374 88.4903 172.522 87.878 172.816 87.3752L174.394 87.7964C173.937 88.7073 173.899 89.604 174.279 90.4867C174.559 91.1379 174.958 91.5755 175.475 91.7994C175.987 92.0256 176.585 91.9917 177.269 91.6975L177.858 91.4439C176.985 91.1498 176.346 90.5317 175.941 89.5899C175.501 88.5672 175.547 87.5554 176.079 86.5545C176.614 85.5589 177.6 84.7519 179.037 84.1335ZM179.708 86.1602C178.831 86.5377 178.216 87.013 177.863 87.5859C177.517 88.1619 177.481 88.7674 177.755 89.4025C178.095 90.1937 178.687 90.6345 179.529 90.7248L183.372 89.0712C183.874 88.4149 183.955 87.6912 183.615 86.9C183.337 86.2541 182.865 85.8609 182.198 85.7203C181.534 85.5851 180.704 85.7318 179.708 86.1602Z" fill="#AD8E55"/>
<path d="M193.517 111.79L191.211 111.953L191.329 113.627L189.751 113.738L189.633 112.064L184.338 112.437C183.975 112.463 183.717 112.551 183.563 112.703C183.416 112.86 183.355 113.123 183.381 113.491C183.398 113.737 183.445 113.983 183.521 114.23L181.873 114.346C181.704 113.871 181.604 113.408 181.573 112.958C181.457 111.321 182.303 110.439 184.109 110.312L189.483 109.933L189.373 108.373L190.951 108.262L191.061 109.822L193.367 109.66L193.517 111.79Z" fill="#AD8E55"/>
<path d="M186.716 120.445C187.641 120.559 188.45 120.845 189.143 121.302C189.843 121.76 190.349 122.345 190.663 123.057C190.982 123.769 191.089 124.556 190.983 125.417C190.826 126.69 190.289 127.672 189.371 128.362C188.453 129.057 187.312 129.354 185.949 129.25L185.451 129.198C184.521 129.083 183.711 128.8 183.023 128.349C182.334 127.904 181.83 127.323 181.511 126.604C181.192 125.892 181.086 125.1 181.193 124.227C181.358 122.896 181.931 121.883 182.914 121.189C183.902 120.502 185.135 120.25 186.612 120.432L186.716 120.445ZM186.272 122.542C185.301 122.422 184.514 122.529 183.912 122.862C183.316 123.196 182.974 123.721 182.886 124.436C182.798 125.151 183.008 125.741 183.518 126.205C184.027 126.675 184.819 126.977 185.895 127.109C186.848 127.227 187.63 127.114 188.239 126.77C188.847 126.432 189.195 125.911 189.282 125.207C189.367 124.515 189.159 123.931 188.656 123.456C188.16 122.982 187.365 122.677 186.272 122.542Z" fill="#AD8E55"/>
<path d="M175.717 149.91C176.053 150.089 176.383 150.085 176.708 149.898C177.029 149.717 177.427 149.341 177.902 148.771C178.377 148.2 178.832 147.755 179.266 147.435C180.221 146.734 181.131 146.613 181.996 147.071C182.721 147.455 183.164 148.081 183.327 148.95C183.49 149.819 183.322 150.725 182.823 151.667C182.291 152.671 181.613 153.35 180.789 153.703C179.963 154.06 179.154 154.03 178.362 153.61L179.362 151.723C179.724 151.915 180.096 151.939 180.476 151.796C180.862 151.656 181.173 151.363 181.409 150.918C181.629 150.504 181.713 150.114 181.661 149.748C181.607 149.388 181.419 149.123 181.098 148.952C180.808 148.799 180.518 148.801 180.229 148.959C179.94 149.118 179.516 149.523 178.958 150.176C178.405 150.831 177.904 151.308 177.454 151.607C177.006 151.913 176.571 152.084 176.148 152.118C175.722 152.158 175.284 152.059 174.834 151.82C174.078 151.419 173.63 150.781 173.491 149.905C173.357 149.032 173.559 148.088 174.097 147.073C174.462 146.384 174.911 145.836 175.445 145.43C175.979 145.023 176.543 144.785 177.137 144.715C177.731 144.645 178.279 144.743 178.781 145.009L177.81 146.842C177.351 146.632 176.918 146.618 176.51 146.8C176.107 146.984 175.77 147.332 175.498 147.845C175.235 148.342 175.128 148.769 175.177 149.127C175.231 149.487 175.411 149.749 175.717 149.91Z" fill="#AD8E55"/>
<path d="M165.85 159.243C166.723 158.209 167.757 157.644 168.951 157.548C170.145 157.461 171.283 157.875 172.366 158.79L172.568 158.96C173.293 159.573 173.822 160.258 174.156 161.016C174.49 161.782 174.603 162.552 174.493 163.327C174.383 164.101 174.065 164.799 173.54 165.421C172.704 166.41 171.743 166.906 170.658 166.91C169.57 166.918 168.448 166.434 167.294 165.458L166.636 164.902L170.647 160.157C170.006 159.699 169.364 159.497 168.719 159.551C168.072 159.61 167.523 159.905 167.072 160.438C166.441 161.185 166.228 162.049 166.435 163.029L164.853 163.199C164.665 162.542 164.656 161.867 164.827 161.175C164.998 160.491 165.339 159.847 165.85 159.243ZM172.236 164.308C172.615 163.86 172.765 163.366 172.686 162.823C172.603 162.286 172.315 161.742 171.819 161.193L169.192 164.301L169.313 164.403C169.889 164.829 170.424 165.032 170.917 165.011C171.415 164.994 171.854 164.76 172.236 164.308Z" fill="#AD8E55"/>
<path d="M155.593 168.915C156.667 168.091 157.797 167.759 158.984 167.92C160.169 168.088 161.193 168.735 162.057 169.86L162.217 170.069C162.795 170.822 163.167 171.604 163.331 172.416C163.495 173.236 163.441 174.012 163.169 174.745C162.897 175.478 162.438 176.093 161.792 176.589C160.765 177.377 159.721 177.657 158.66 177.43C157.594 177.206 156.601 176.495 155.681 175.296L155.157 174.612L160.086 170.829C159.557 170.246 158.972 169.912 158.331 169.827C157.686 169.746 157.087 169.918 156.533 170.343C155.757 170.939 155.366 171.737 155.359 172.74L153.777 172.569C153.733 171.886 153.868 171.225 154.182 170.585C154.495 169.953 154.965 169.397 155.593 168.915ZM160.755 175.224C161.22 174.867 161.472 174.415 161.51 173.869C161.544 173.326 161.378 172.733 161.011 172.092L157.783 174.569L157.879 174.695C158.351 175.233 158.831 175.545 159.317 175.63C159.806 175.719 160.286 175.584 160.755 175.224Z" fill="#AD8E55"/>
<path d="M139.387 188.364L139.078 187.418C138.627 188.34 137.84 188.947 136.718 189.239C135.487 189.559 134.523 189.307 133.824 188.483C133.4 189.599 132.581 190.314 131.367 190.629C130.352 190.893 129.525 190.808 128.885 190.375C128.24 189.943 127.77 189.181 127.474 188.09L125.903 182.042L127.97 181.505L129.526 187.493C129.678 188.077 129.917 188.472 130.243 188.678C130.568 188.884 131.026 188.911 131.616 188.757C132.087 188.635 132.439 188.407 132.674 188.074C132.904 187.748 133.025 187.365 133.038 186.926L131.39 180.616L133.457 180.079L135.03 186.136C135.34 187.212 136.034 187.609 137.111 187.329C137.939 187.114 138.439 186.624 138.609 185.86L136.876 179.19L138.944 178.653L141.335 187.858L139.387 188.364Z" fill="#AD8E55"/>
<path d="M119.763 187.362C119.754 188.294 119.56 189.13 119.184 189.87C118.807 190.616 118.282 191.185 117.61 191.576C116.938 191.974 116.168 192.168 115.301 192.159C114.018 192.146 112.982 191.722 112.194 190.888C111.4 190.053 110.978 188.953 110.927 187.587L110.924 187.086C110.933 186.149 111.124 185.313 111.495 184.578C111.86 183.844 112.381 183.278 113.059 182.881C113.731 182.483 114.507 182.289 115.385 182.298C116.727 182.312 117.798 182.768 118.597 183.667C119.391 184.572 119.78 185.768 119.764 187.257L119.763 187.362ZM117.629 187.156C117.639 186.177 117.445 185.407 117.047 184.847C116.648 184.292 116.089 184.011 115.368 184.003C114.647 183.996 114.085 184.271 113.681 184.83C113.27 185.388 113.06 186.209 113.049 187.293C113.039 188.254 113.239 189.018 113.649 189.584C114.053 190.151 114.61 190.438 115.319 190.445C116.016 190.453 116.573 190.18 116.989 189.628C117.404 189.081 117.618 188.257 117.629 187.156Z" fill="#AD8E55"/>
<path d="M97.8362 187.858C98.1015 187.963 98.3802 188.046 98.6725 188.108C99.6294 188.313 100.352 188.084 100.841 187.421L102.2 181.061L104.289 181.507L102.302 190.807L100.308 190.381L100.479 189.33C99.8017 190.03 99.0163 190.285 98.1224 190.094C97.8244 190.03 97.5866 189.938 97.4089 189.816L97.8362 187.858Z" fill="#AD8E55"/>
<path d="M89.5854 176.862C90.8302 177.393 91.6738 178.215 92.1162 179.328C92.5509 180.444 92.4899 181.653 91.9331 182.958L91.8295 183.2C91.4568 184.073 90.9573 184.78 90.331 185.322C89.697 185.867 88.9939 186.201 88.2216 186.323C87.4493 186.446 86.6887 186.347 85.9396 186.027C84.7487 185.519 83.9921 184.747 83.6699 183.711C83.3422 182.673 83.4752 181.458 84.0688 180.068L84.407 179.276L90.1218 181.716C90.3708 180.969 90.3749 180.295 90.134 179.695C89.8878 179.093 89.444 178.655 88.8028 178.381C87.9028 177.997 87.0147 178.048 86.1382 178.534L85.5107 177.071C86.0842 176.698 86.7267 176.492 87.4383 176.451C88.1422 176.414 88.8579 176.551 89.5854 176.862ZM86.6207 184.455C87.1596 184.685 87.6766 184.683 88.1717 184.448C88.6615 184.211 89.096 183.775 89.4752 183.141L85.7327 181.543L85.6706 181.689C85.433 182.364 85.3964 182.935 85.561 183.4C85.7232 183.871 86.0764 184.222 86.6207 184.455Z" fill="#AD8E55"/>
</svg>
