<svg width="180" height="180" viewBox="0 0 180 180" fill="none" xmlns="http://www.w3.org/2000/svg">
<line x1="178.72" y1="74.7424" x2="1.45413" y2="105.999" stroke="#AD8E55"/>
<line x1="174.743" y1="59.5665" x2="5.59849" y2="121.13" stroke="#AD8E55"/>
<line x1="168.193" y1="45.3119" x2="12.3087" y2="135.312" stroke="#AD8E55"/>
<line x1="159.265" y1="32.4109" x2="21.3767" y2="148.113" stroke="#AD8E55"/>
<line x1="148.233" y1="21.2565" x2="32.5308" y2="159.145" stroke="#AD8E55"/>
<line x1="135.431" y1="12.1865" x2="45.431" y2="168.071" stroke="#AD8E55"/>
<line x1="121.249" y1="5.47765" x2="59.6855" y2="174.622" stroke="#AD8E55"/>
<line x1="106.119" y1="1.33341" x2="74.8627" y2="178.599" stroke="#AD8E55"/>
<line x1="90.5" y1="180" x2="90.5" y2="-0.000122092" stroke="#AD8E55"/>
<line x1="178.72" y1="74.7424" x2="1.45413" y2="105.999" stroke="#AD8E55"/>
<line x1="174.743" y1="59.5665" x2="5.59849" y2="121.13" stroke="#AD8E55"/>
<line x1="168.193" y1="45.3119" x2="12.3087" y2="135.312" stroke="#AD8E55"/>
<line x1="159.265" y1="32.4109" x2="21.3767" y2="148.113" stroke="#AD8E55"/>
<line x1="148.233" y1="21.2565" x2="32.5308" y2="159.145" stroke="#AD8E55"/>
<line x1="135.431" y1="12.1865" x2="45.431" y2="168.071" stroke="#AD8E55"/>
<line x1="121.249" y1="5.47765" x2="59.6855" y2="174.622" stroke="#AD8E55"/>
<line x1="106.119" y1="1.33341" x2="74.8627" y2="178.599" stroke="#AD8E55"/>
<line x1="180" y1="90.2563" x2="-0.00012207" y2="90.2563" stroke="#AD8E55"/>
<line x1="74.8635" y1="1.15878" x2="106.12" y2="178.424" stroke="#AD8E55"/>
<line x1="59.6886" y1="5.13514" x2="121.252" y2="174.28" stroke="#AD8E55"/>
<line x1="45.433" y1="11.6865" x2="135.433" y2="167.571" stroke="#AD8E55"/>
<line x1="32.5315" y1="20.6137" x2="148.233" y2="158.502" stroke="#AD8E55"/>
<line x1="21.378" y1="31.6458" x2="159.266" y2="147.348" stroke="#AD8E55"/>
<line x1="12.3066" y1="44.4469" x2="168.191" y2="134.447" stroke="#AD8E55"/>
<line x1="5.59874" y1="58.6283" x2="174.744" y2="120.192" stroke="#AD8E55"/>
<line x1="1.45401" y1="73.7595" x2="178.72" y2="105.016" stroke="#AD8E55"/>
<line x1="74.8635" y1="1.15878" x2="106.12" y2="178.424" stroke="#AD8E55"/>
<line x1="59.6886" y1="5.13514" x2="121.252" y2="174.28" stroke="#AD8E55"/>
<line x1="45.433" y1="11.6865" x2="135.433" y2="167.571" stroke="#AD8E55"/>
<line x1="32.5315" y1="20.6137" x2="148.233" y2="158.502" stroke="#AD8E55"/>
<line x1="21.378" y1="31.6458" x2="159.266" y2="147.348" stroke="#AD8E55"/>
<line x1="12.3066" y1="44.4469" x2="168.191" y2="134.447" stroke="#AD8E55"/>
<line x1="5.59874" y1="58.6283" x2="174.744" y2="120.192" stroke="#AD8E55"/>
<line x1="1.45401" y1="73.7595" x2="178.72" y2="105.016" stroke="#AD8E55"/>
<circle cx="90.001" cy="89.8784" r="11.3681" fill="#AD8E55" stroke="#1A150C"/>
</svg>
