<svg width="24" height="23" viewBox="0 0 24 23" fill="none" xmlns="http://www.w3.org/2000/svg">
<path d="M6.96 0H17.04C20.88 0 24 2.99 24 6.67V16.33C24 18.099 23.2667 19.7955 21.9615 21.0464C20.6562 22.2973 18.8859 23 17.04 23H6.96C3.12 23 0 20.01 0 16.33V6.67C0 4.90101 0.733284 3.20447 2.03854 1.9536C3.34379 0.702731 5.11409 0 6.96 0ZM6.72 2.3C5.57426 2.3 4.47545 2.73618 3.6653 3.51258C2.85515 4.28898 2.4 5.342 2.4 6.44V16.56C2.4 18.8485 4.332 20.7 6.72 20.7H17.28C18.4257 20.7 19.5245 20.2638 20.3347 19.4874C21.1448 18.711 21.6 17.658 21.6 16.56V6.44C21.6 4.1515 19.668 2.3 17.28 2.3H6.72ZM18.3 4.025C18.6978 4.025 19.0793 4.17645 19.3606 4.44604C19.642 4.71562 19.8 5.08125 19.8 5.4625C19.8 5.84375 19.642 6.20938 19.3606 6.47896C19.0793 6.74855 18.6978 6.9 18.3 6.9C17.9022 6.9 17.5207 6.74855 17.2393 6.47896C16.958 6.20938 16.8 5.84375 16.8 5.4625C16.8 5.08125 16.958 4.71562 17.2393 4.44604C17.5207 4.17645 17.9022 4.025 18.3 4.025ZM12 5.75C13.5913 5.75 15.1175 6.3558 16.2427 7.4341C17.3678 8.51244 18 9.97503 18 11.5C18 13.025 17.3678 14.4876 16.2427 15.5659C15.1175 16.6442 13.5913 17.25 12 17.25C10.4087 17.25 8.88255 16.6442 7.75732 15.5659C6.63214 14.4876 6 13.025 6 11.5C6 9.97503 6.63214 8.51244 7.75732 7.4341C8.88255 6.3558 10.4087 5.75 12 5.75ZM12 8.05C11.0452 8.05 10.1296 8.41347 9.45442 9.06049C8.77927 9.70751 8.4 10.585 8.4 11.5C8.4 12.415 8.77927 13.2925 9.45442 13.9395C10.1296 14.5865 11.0452 14.95 12 14.95C12.9548 14.95 13.8704 14.5865 14.5456 13.9395C15.2207 13.2925 15.6 12.415 15.6 11.5C15.6 10.585 15.2207 9.70751 14.5456 9.06049C13.8704 8.41347 12.9548 8.05 12 8.05Z" fill="#AD8E55"/>
</svg>
