<svg width="24" height="20" viewBox="0 0 24 20" fill="none" xmlns="http://www.w3.org/2000/svg">
<path d="M24 2.35294C23.1167 2.76471 22.1644 3.03529 21.1778 3.16471C22.1873 2.54118 22.9675 1.55294 23.3346 0.364706C22.3824 0.952938 21.327 1.36471 20.2142 1.6C19.3079 0.588236 18.0344 0 16.5889 0C13.8929 0 11.6903 2.25882 11.6903 5.04706C11.6903 5.44706 11.7361 5.83529 11.8164 6.2C7.73229 5.98823 4.0956 3.97647 1.67495 0.929411C1.25048 1.67059 1.00956 2.54118 1.00956 3.45882C1.00956 5.21177 1.86998 6.76471 3.20076 7.64705C2.38623 7.64705 1.62906 7.41178 0.963673 7.05882C0.963673 7.05882 0.963673 7.05882 0.963673 7.09412C0.963673 9.54116 2.66157 11.5882 4.91013 12.0471C4.49713 12.1647 4.06119 12.2236 3.61377 12.2236C3.30401 12.2236 2.99426 12.1882 2.69599 12.1294C3.31549 14.1177 5.11663 15.6 7.28487 15.6353C5.60994 17 3.48757 17.8 1.17017 17.8C0.780116 17.8 0.390057 17.7764 0 17.7294C2.17973 19.1647 4.77247 20 7.54873 20C16.5889 20 21.5564 12.3059 21.5564 5.63529C21.5564 5.41177 21.5564 5.2 21.5449 4.97647C22.5086 4.27059 23.3346 3.37647 24 2.35294Z" fill="#AD8E55"/>
</svg>
